<svg xmlns="http://www.w3.org/2000/svg" viewBox="0 0 64 64" role="img" aria-label="Articles favicon">
  <defs>
    <pattern id="dots" width="4" height="4" patternUnits="userSpaceOnUse">
      <circle cx="1.1" cy="1.1" r="0.7" fill="#1C75BE"/>
    </pattern>
  </defs>
  <rect width="64" height="64" fill="#ffffff"/>
  <polygon points="12,6 55,12 49,59 6,53" fill="url(#dots)"/>
  <g fill="#1C75BE" opacity="0.92">
    <circle cx="32" cy="22" r="1.5"/>
    <circle cx="28" cy="25" r="1.35"/>
    <circle cx="35" cy="24.5" r="1.35"/>
    <circle cx="26.5" cy="29" r="1.3"/>
    <circle cx="30.5" cy="30" r="1.35"/>
    <circle cx="35" cy="29.5" r="1.35"/>
    <circle cx="38.5" cy="28.5" r="1.2"/>
    <circle cx="29" cy="35" r="1.2"/>
    <circle cx="33.5" cy="35" r="1.2"/>
    <circle cx="37.5" cy="35" r="1.1"/>
    <circle cx="31.5" cy="40" r="1.1"/>
    <circle cx="35.5" cy="41" r="1.05"/>
    <circle cx="26.5" cy="41.5" r="1.05"/>
    <circle cx="40.5" cy="39" r="1"/>
    <circle cx="22.5" cy="39" r="1"/>
  </g>
</svg>
